HIERARCHY
ROOT Hips
{
	OFFSET 0.000000 0.000000 0.000000
	CHANNELS 6 Xposition Yposition Zposition Xrotation Yrotation Zrotation
	JOINT LeftUpLeg_virtual
	{
		OFFSET 0.000000 0.000000 0.000000
		CHANNELS 3 Xrotation Yrotation Zrotation
		JOINT LeftUpLeg
		{
			OFFSET 13.026900 -6.336304 -1.092800
			CHANNELS 3 Xrotation Yrotation Zrotation
			JOINT LeftLeg
			{
				OFFSET 0.524474 -46.096886 9.782700
				CHANNELS 3 Xrotation Yrotation Zrotation
				JOINT LeftFoot
				{
					OFFSET -0.524474 -53.427422 -12.948200
					CHANNELS 3 Xrotation Yrotation Zrotation
					JOINT LeftToeBase
					{
						OFFSET 0.192200 -14.009700 16.364100
						CHANNELS 3 Xrotation Yrotation Zrotation
						JOINT LeftToe_End
						{
							OFFSET -1.784700 -0.561700 9.474800
							CHANNELS 3 Xrotation Yrotation Zrotation
							End Site
							{
								OFFSET 0 0 0
							}
						}
					}
				}
			}
		}
	}
	JOINT RightUpLeg_virtual
	{
		OFFSET 0.000000 0.000000 0.000000
		CHANNELS 3 Xrotation Yrotation Zrotation
		JOINT RightUpLeg
		{
			OFFSET -12.883000 -6.336304 -1.092800
			CHANNELS 3 Xrotation Yrotation Zrotation
			JOINT RightLeg
			{
				OFFSET -0.524587 -46.096825 9.782800
				CHANNELS 3 Xrotation Yrotation Zrotation
				JOINT RightFoot
				{
					OFFSET 0.524587 -53.427383 -12.948300
					CHANNELS 3 Xrotation Yrotation Zrotation
					JOINT RightToeBase
					{
						OFFSET -0.192200 -14.009700 16.364100
						CHANNELS 3 Xrotation Yrotation Zrotation
						JOINT RightToe_End
						{
							OFFSET 1.784700 -0.561700 9.474800
							CHANNELS 3 Xrotation Yrotation Zrotation
							End Site
							{
								OFFSET 0 0 0
							}
						}
					}
				}
			}
		}
	}
	JOINT Spine_virtual
	{
		OFFSET 0.000000 0.000000 0.000000
		CHANNELS 3 Xrotation Yrotation Zrotation
		JOINT Spine
		{
			OFFSET 0.072000 7.257294 -0.789700
			CHANNELS 3 Xrotation Yrotation Zrotation
			JOINT Spine1
			{
				OFFSET 0.000000 12.508769 -0.658067
				CHANNELS 3 Xrotation Yrotation Zrotation
				JOINT Spine1_split
				{
					OFFSET 0.000000 12.508769 -0.658067
					CHANNELS 3 Xrotation Yrotation Zrotation
					JOINT Spine2
					{
						OFFSET 0.000000 12.508769 -0.658067
						CHANNELS 3 Xrotation Yrotation Zrotation
						JOINT Neck_virtual
						{
							OFFSET 0.000000 0.000000 0.000000
							CHANNELS 3 Xrotation Yrotation Zrotation
							JOINT Neck
							{
								OFFSET 0.000000 14.033295 7.520400
								CHANNELS 3 Xrotation Yrotation Zrotation
								JOINT Head
								{
									OFFSET 0.000000 8.198502 5.703100
									CHANNELS 3 Xrotation Yrotation Zrotation
									JOINT HeadTop_End
									{
										OFFSET 0.000000 17.760803 13.332701
										CHANNELS 3 Xrotation Yrotation Zrotation
										End Site
										{
											OFFSET 0 0 0
										}
									}
								}
							}
						}
						JOINT LeftShoulder_virtual
						{
							OFFSET 0.000000 0.000000 0.000000
							CHANNELS 3 Xrotation Yrotation Zrotation
							JOINT LeftShoulder
							{
								OFFSET 6.292450 5.785301 -0.669000
								CHANNELS 3 Xrotation Yrotation Zrotation
								JOINT LeftShoulder_split
								{
									OFFSET 6.292450 5.785301 -0.669000
									CHANNELS 3 Xrotation Yrotation Zrotation
									JOINT LeftArm
									{
										OFFSET 13.907140 -6.093903 1.965100
										CHANNELS 3 Xrotation Yrotation Zrotation
										JOINT LeftForeArm
										{
											OFFSET 34.140198 0.000000 0.000000
											CHANNELS 3 Xrotation Yrotation Zrotation
											JOINT LeftHand
											{
												OFFSET 40.960209 0.000000 0.000000
												CHANNELS 3 Xrotation Yrotation Zrotation
												End Site
												{
													OFFSET 0 0 0
												}
											}
										}
									}
								}
							}
						}
						JOINT RightShoulder_virtual
						{
							OFFSET 0.000000 0.000000 0.000000
							CHANNELS 3 Xrotation Yrotation Zrotation
							JOINT RightShoulder
							{
								OFFSET -6.292450 5.785301 -0.669000
								CHANNELS 3 Xrotation Yrotation Zrotation
								JOINT RightShoulder_split
								{
									OFFSET -6.292450 5.785301 -0.669000
									CHANNELS 3 Xrotation Yrotation Zrotation
									JOINT RightArm
									{
										OFFSET -13.907140 -6.093903 1.965100
										CHANNELS 3 Xrotation Yrotation Zrotation
										JOINT RightForeArm
										{
											OFFSET -34.140198 0.000000 0.000000
											CHANNELS 3 Xrotation Yrotation Zrotation
											JOINT RightHand
											{
												OFFSET -40.960209 0.000000 0.000000
												CHANNELS 3 Xrotation Yrotation Zrotation
												End Site
												{
													OFFSET 0 0 0
												}
											}
										}
									}
								}
							}
						}
					}
				}
			}
		}
	}
}
MOTION
Frames: 11
Frame Time: 0.03333333
13.871589 23.903358 -41.976513 0.000000 0.000000 0.000000 68.810276 6.791401 -3.575115 -9.822165 -6.848202 29.121041 31.404612 -1.155430 -11.815106 28.426581 50.103939 -26.949749 -4.893614 -5.684988 -2.509215 0.000000 0.000000 0.000000 71.048263 2.972786 -3.306145 -37.808683 -39.033360 -36.883517 36.766734 25.371972 -9.093154 37.218527 -43.375950 33.182292 11.710653 8.489252 3.500556 0.000000 0.000000 0.000000 75.440614 6.195955 -6.272799 15.524400 1.023019 -2.200888 -8.389240 -3.757414 -0.126177 -0.021905 0.430952 -0.017839 0.000000 0.000000 0.000000 -6.824504 -0.957698 1.220672 -8.057140 1.555249 12.584536 -25.358988 -35.646901 -11.583010 0.000000 0.000000 0.000000 -11.376671 -1.277584 -0.904124 -0.757385 -11.546865 4.921673 -0.055649 1.423801 -5.396675 29.917291 -32.439096 -54.563434 -6.928278 -36.540904 -6.463105 0.000000 0.000000 0.000000 -8.056434 -2.515170 0.124822 5.057666 2.873187 8.229285 -24.801192 1.820521 4.993655 21.426566 16.646889 46.741635 -19.369885 32.139892 28.023009 0.000000 0.000000 0.000000 
13.871257 23.904488 -41.981968 0.000000 0.000000 0.000000 68.808029 6.785180 -3.566300 -9.816438 -6.853653 29.119272 31.408020 -1.152777 -11.816927 28.438227 50.103341 -26.957198 -4.885516 -5.683284 -2.512923 0.000000 0.000000 0.000000 71.040811 2.972446 -3.304802 -37.798414 -39.037485 -36.880870 36.782327 25.369061 -9.095865 37.214002 -43.376257 33.185816 11.720808 8.491780 3.498101 0.000000 0.000000 0.000000 75.442404 6.205509 -6.275157 15.529142 1.026906 -2.204134 -8.387874 -3.751495 -0.126180 -0.021363 0.432521 -0.017614 0.000000 0.000000 0.000000 -6.821946 -0.955042 1.220565 -8.060057 1.553232 12.602032 -25.354236 -35.666722 -11.581364 0.000000 0.000000 0.000000 -11.375436 -1.272869 -0.906608 -0.752310 -11.563518 4.927431 -0.080746 1.425939 -5.375020 29.914900 -32.432317 -54.563875 -6.933815 -36.522872 -6.462051 0.000000 0.000000 0.000000 -8.055439 -2.510890 0.125181 5.055434 2.862391 8.225933 -24.809646 1.803747 4.986568 21.402203 16.598825 46.789965 -19.391527 32.128640 28.043450 0.000000 0.000000 0.000000 
13.871454 23.909073 -41.989353 0.000000 0.000000 0.000000 68.802736 6.783309 -3.560574 -9.812717 -6.853445 29.114528 31.412716 -1.141870 -11.814291 28.453581 50.103464 -26.962833 -4.878510 -5.680292 -2.518992 0.000000 0.000000 0.000000 71.032526 2.970778 -3.303716 -37.773415 -39.053164 -36.868791 36.787542 25.351869 -9.094830 37.194656 -43.394808 33.175977 11.734060 8.497355 3.493393 0.000000 0.000000 0.000000 75.439726 6.219852 -6.283004 15.539331 1.034939 -2.210689 -8.385960 -3.745010 -0.125100 -0.020932 0.435442 -0.018346 0.000000 0.000000 0.000000 -6.817301 -0.950879 1.221579 -8.059919 1.539210 12.652263 -25.367159 -35.703499 -11.595160 0.000000 0.000000 0.000000 -11.376711 -1.266979 -0.906576 -0.744871 -11.599679 4.944669 -0.090071 1.425520 -5.373151 29.897265 -32.435879 -54.557021 -6.931169 -36.476857 -6.456329 0.000000 0.000000 0.000000 -8.055948 -2.507248 0.127062 5.046675 2.824559 8.221839 -24.821334 1.789798 4.984091 21.368645 16.531532 46.832811 -19.429192 32.096538 28.090148 0.000000 0.000000 0.000000 
13.870409 23.915520 -41.998981 0.000000 0.000000 0.000000 68.796288 6.787372 -3.558320 -9.815514 -6.850758 29.107869 31.421001 -1.128612 -11.806832 28.470202 50.101920 -26.969284 -4.868524 -5.676382 -2.527245 0.000000 0.000000 0.000000 71.020478 2.968442 -3.299698 -37.744127 -39.074436 -36.855786 36.785251 25.327448 -9.091585 37.172318 -43.418222 33.166074 11.747472 8.505062 3.487325 0.000000 0.000000 0.000000 75.434330 6.234537 -6.292753 15.553889 1.046092 -2.219587 -8.382911 -3.738147 -0.123640 -0.021680 0.438679 -0.019115 0.000000 0.000000 0.000000 -6.811573 -0.945395 1.222857 -8.057994 1.516684 12.727758 -25.416423 -35.750569 -11.633224 0.000000 0.000000 0.000000 -11.378772 -1.260187 -0.904871 -0.735711 -11.652523 4.969742 -0.091347 1.420975 -5.394196 29.869363 -32.450939 -54.541321 -6.922315 -36.398659 -6.447876 0.000000 0.000000 0.000000 -8.056411 -2.503639 0.130256 5.033145 2.767274 8.212484 -24.832298 1.786915 5.000992 21.333527 16.458150 46.850364 -19.480220 32.058196 28.159555 0.000000 0.000000 0.000000 
13.869158 23.922241 -42.005573 0.000000 0.000000 0.000000 68.788877 6.798057 -3.559989 -9.822971 -6.849583 29.097043 31.433716 -1.114013 -11.795354 28.482893 50.099875 -26.969495 -4.858874 -5.672423 -2.535930 0.000000 0.000000 0.000000 71.006797 2.970461 -3.295311 -37.718876 -39.094637 -36.849673 36.786989 25.308301 -9.089920 37.159002 -43.429635 33.167539 11.758383 8.513488 3.482804 0.000000 0.000000 0.000000 75.426933 6.251406 -6.305543 15.570041 1.058623 -2.229819 -8.378485 -3.731011 -0.122019 -0.023332 0.439075 -0.020584 0.000000 0.000000 0.000000 -6.802777 -0.938863 1.224560 -8.055454 1.491670 12.818302 -25.515693 -35.792903 -11.701709 0.000000 0.000000 0.000000 -11.380251 -1.252374 -0.902209 -0.726605 -11.717493 4.999327 -0.087467 1.416830 -5.432746 29.829936 -32.478485 -54.519041 -6.910429 -36.287378 -6.439124 0.000000 0.000000 0.000000 -8.054643 -2.499532 0.133621 5.016936 2.701173 8.193117 -24.834600 1.782059 5.026541 21.302602 16.384579 46.832022 -19.534643 32.017454 28.240430 0.000000 0.000000 0.000000 
13.866565 23.929382 -42.012821 0.000000 0.000000 0.000000 68.781255 6.815006 -3.563842 -9.834055 -6.856984 29.081392 31.453827 -1.102242 -11.780630 28.497689 50.095510 -26.968071 -4.854939 -5.668685 -2.542892 0.000000 0.000000 0.000000 70.993020 2.979529 -3.291736 -37.703399 -39.110503 -36.856076 36.799796 25.295980 -9.089963 37.164456 -43.422050 33.183620 11.771841 8.521102 3.482795 0.000000 0.000000 0.000000 75.420055 6.270315 -6.319918 15.584441 1.070193 -2.240666 -8.371542 -3.723534 -0.120103 -0.023296 0.437648 -0.021048 0.000000 0.000000 0.000000 -6.789701 -0.931183 1.226569 -8.051850 1.471184 12.911923 -25.666089 -35.818386 -11.795535 0.000000 0.000000 0.000000 -11.379639 -1.244042 -0.899371 -0.719828 -11.790107 5.029225 -0.076859 1.439960 -5.488896 29.781063 -32.512086 -54.494504 -6.901592 -36.147550 -6.433432 0.000000 0.000000 0.000000 -8.050269 -2.494424 0.136498 5.000874 2.638660 8.161445 -24.844270 1.770387 5.062562 21.278461 16.314988 46.772917 -19.580708 31.972098 28.318862 0.000000 0.000000 0.000000 
13.865557 23.936752 -42.017399 0.000000 0.000000 0.000000 68.772102 6.836796 -3.567338 -9.846882 -6.876418 29.058569 31.482067 -1.092723 -11.763377 28.518446 50.091316 -26.966698 -4.856364 -5.665284 -2.545706 0.000000 0.000000 0.000000 70.977065 2.992890 -3.288151 -37.703812 -39.123190 -36.878227 36.823906 25.284426 -9.089331 37.191879 -43.398841 33.212888 11.799368 8.526253 3.490109 0.000000 0.000000 0.000000 75.414338 6.291830 -6.332806 15.591836 1.076296 -2.251853 -8.362466 -3.716140 -0.117827 -0.021914 0.436642 -0.021171 0.000000 0.000000 0.000000 -6.773120 -0.922258 1.229515 -8.040419 1.463365 12.996209 -25.850825 -35.830783 -11.899872 0.000000 0.000000 0.000000 -11.376561 -1.235942 -0.897710 -0.716520 -11.864218 5.055573 -0.066256 1.489616 -5.552811 29.728750 -32.536614 -54.478053 -6.904406 -35.993758 -6.434797 0.000000 0.000000 0.000000 -8.043268 -2.487493 0.138864 4.988427 2.591225 8.121096 -24.881599 1.739273 5.105382 21.253821 16.250670 46.679579 -19.610510 31.911224 28.383821 0.000000 0.000000 0.000000 
13.864070 23.945854 -42.014683 0.000000 0.000000 0.000000 68.763319 6.866761 -3.572059 -9.856977 -6.904592 29.027020 31.510641 -1.074522 -11.746472 28.534005 50.096757 -26.951665 -4.848826 -5.662758 -2.545378 0.000000 0.000000 0.000000 70.961800 3.012008 -3.286221 -37.718627 -39.135085 -36.915000 36.852514 25.270127 -9.086353 37.231511 -43.367822 33.248592 11.847348 8.527840 3.504592 0.000000 0.000000 0.000000 75.407515 6.318076 -6.342674 15.586828 1.073797 -2.264229 -8.352401 -3.710548 -0.115349 -0.020807 0.433691 -0.021093 0.000000 0.000000 0.000000 -6.755018 -0.913081 1.233324 -8.015895 1.470913 13.059353 -26.047194 -35.839239 -11.992899 0.000000 0.000000 0.000000 -11.373268 -1.228795 -0.896959 -0.717470 -11.936395 5.078916 -0.037338 1.555585 -5.602625 29.673791 -32.549000 -54.479426 -6.928613 -35.854661 -6.447792 0.000000 0.000000 0.000000 -8.035899 -2.480551 0.140558 4.980310 2.569047 8.080031 -24.924450 1.690370 5.138427 21.221338 16.192367 46.568728 -19.619734 31.829214 28.430060 0.000000 0.000000 0.000000 
13.860504 23.954941 -42.005772 0.000000 0.000000 0.000000 68.755888 6.902674 -3.576379 -9.864455 -6.938512 28.991199 31.532299 -1.049102 -11.730316 28.542824 50.110875 -26.927961 -4.821950 -5.661547 -2.541848 0.000000 0.000000 0.000000 70.951746 3.037478 -3.284848 -37.738141 -39.145177 -36.957662 36.873948 25.248906 -9.079418 37.265697 -43.338530 33.281630 11.909739 8.524963 3.522456 0.000000 0.000000 0.000000 75.401054 6.346482 -6.344574 15.567502 1.057942 -2.277549 -8.343785 -3.709871 -0.113590 -0.018697 0.429990 -0.019443 0.000000 0.000000 0.000000 -6.740078 -0.905950 1.237174 -7.972252 1.496447 13.093554 -26.229991 -35.854549 -12.052221 0.000000 0.000000 0.000000 -11.371698 -1.225085 -0.898367 -0.722621 -12.003176 5.094502 -0.000999 1.591093 -5.619059 29.617408 -32.543597 -54.505009 -6.979443 -35.740560 -6.471106 0.000000 0.000000 0.000000 -8.030882 -2.475737 0.141693 4.977139 2.577258 8.044660 -24.943183 1.633132 5.163690 21.175157 16.146448 46.451796 -19.622247 31.735501 28.465997 0.000000 0.000000 0.000000 
13.855972 23.963226 -41.994534 0.000000 0.000000 0.000000 68.750362 6.938494 -3.578212 -9.867253 -6.977590 28.954808 31.540861 -1.022298 -11.715358 28.547447 50.124904 -26.904072 -4.780182 -5.661884 -2.533953 0.000000 0.000000 0.000000 70.948481 3.067351 -3.284306 -37.755431 -39.153021 -36.997878 36.884200 25.220940 -9.069602 37.289285 -43.313498 33.313117 11.977404 8.517715 3.538763 0.000000 0.000000 0.000000 75.397167 6.375877 -6.338798 15.534949 1.027151 -2.290551 -8.339939 -3.716766 -0.113840 -0.017974 0.425856 -0.017733 0.000000 0.000000 0.000000 -6.732353 -0.904005 1.240287 -7.911153 1.539592 13.094258 -26.390961 -35.879431 -12.071752 0.000000 0.000000 0.000000 -11.374005 -1.225849 -0.903203 -0.730053 -12.064222 5.099478 0.033605 1.580267 -5.588789 29.553733 -32.518302 -54.559288 -7.057893 -35.642075 -6.501677 0.000000 0.000000 0.000000 -8.030062 -2.476093 0.141783 4.977853 2.616938 8.019883 -24.940680 1.567256 5.176509 21.117403 16.115893 46.336854 -19.631167 31.641336 28.500983 0.000000 0.000000 0.000000 
13.849629 23.970833 -41.986813 0.000000 0.000000 0.000000 68.749952 6.972565 -3.578760 -9.862014 -7.020266 28.923939 31.536568 -1.000697 -11.703522 28.554948 50.127978 -26.890849 -4.743604 -5.663292 -2.520130 0.000000 0.000000 0.000000 70.954935 3.100671 -3.286192 -37.768269 -39.155624 -37.028453 36.881642 25.189929 -9.058868 37.305694 -43.288417 33.350236 12.040655 8.506739 3.549367 0.000000 0.000000 0.000000 75.403485 6.399565 -6.327089 15.496156 0.982522 -2.299541 -8.343187 -3.733195 -0.119554 -0.018362 0.421266 -0.016503 0.000000 0.000000 0.000000 -6.734386 -0.910664 1.240376 -7.843124 1.598222 13.057920 -26.523595 -35.905253 -12.052556 0.000000 0.000000 0.000000 -11.380640 -1.233455 -0.913288 -0.735641 -12.121103 5.096309 0.064340 1.530527 -5.530347 29.478492 -32.475931 -54.637067 -7.157560 -35.534906 -6.531491 0.000000 0.000000 0.000000 -8.033011 -2.485743 0.138848 4.978990 2.682782 8.006326 -24.919604 1.498492 5.175293 21.063515 16.111335 46.222458 -19.652088 31.568274 28.539826 0.000000 0.000000 0.000000 
